{
  "accessors": [
    {
      "bufferView": 1,
      "componentType": 5126,
      "count": 34300,
      "max": [
        3.7223899364471436,
        2.6766700744628906,
        5.0263400077819824
      ],
      "min": [
        -3.7843899726867676,
        -2.2659399509429932,
        -0.0076000001281499863
      ],
      "type": "VEC3"
    },
    {
      "bufferView": 1,
      "byteOffset": 411600,
      "componentType": 5126,
      "count": 34300,
      "max": [
        0.99999481439590454,
        0.99999541044235229,
        0.99999803304672241
      ],
      "min": [
        -0.99999481439590454,
        -0.99999850988388062,
        -1
      ],
      "type": "VEC3"
    },
    {
      "bufferView": 0,
      "componentType": 5125,
      "count": 200376,
      "max": [
        34299
      ],
      "min": [
        0
      ],
      "type": "SCALAR"
    },
    {
      "bufferView": 1,
      "byteOffset": 823200,
      "componentType": 5126,
      "count": 4106,
      "max": [
        0.97655999660491943,
        -0.57090002298355103,
        3.6641499996185303
      ],
      "min": [
        -0.97658002376556396,
        -1.3652000427246094,
        1.8568999767303467
      ],
      "type": "VEC3"
    },
    {
      "bufferView": 1,
      "byteOffset": 872472,
      "componentType": 5126,
      "count": 4106,
      "max": [
        0.99980670213699341,
        0.52716332674026489,
        0.99920397996902466
      ],
      "min": [
        -0.99980670213699341,
        -0.99993950128555298,
        -0.91917514801025391
      ],
      "type": "VEC3"
    },
    {
      "bufferView": 0,
      "byteOffset": 801504,
      "componentType": 5125,
      "count": 20184,
      "max": [
        4105
      ],
      "min": [
        0
      ],
      "type": "SCALAR"
    },
    {
      "bufferView": 1,
      "byteOffset": 921744,
      "componentType": 5126,
      "count": 369,
      "max": [
        0.91439002752304077,
        -0.60942000150680542,
        3.5995900630950928
      ],
      "min": [
        -0.91420000791549683,
        -1.3119800090789795,
        1.9113399982452393
      ],
      "type": "VEC3"
    },
    {
      "bufferView": 1,
      "byteOffset": 926172,
      "componentType": 5126,
      "count": 369,
      "max": [
        -0.00012999949103686959,
        -0.92324638366699219,
        0.38420847058296204
      ],
      "min": [
        -0.00012999998580198735,
        -0.92324990034103394,
        0.38419994711875916
      ],
      "type": "VEC3"
    },
    {
      "bufferView": 0,
      "byteOffset": 882240,
      "componentType": 5125,
      "count": 2016,
      "max": [
        368
      ],
      "min": [
        0
      ],
      "type": "SCALAR"
    },
    {
      "bufferView": 1,
      "byteOffset": 930600,
      "componentType": 5126,
      "count": 1706,
      "max": [
        1.2220799922943115,
        -0.50976002216339111,
        2.9816200733184814
      ],
      "min": [
        0.69700002670288086,
        -1.247230052947998,
        2.4922199249267578
      ],
      "type": "VEC3"
    },
    {
      "bufferView": 1,
      "byteOffset": 951072,
      "componentType": 5126,
      "count": 1706,
      "max": [
        0.99877071380615234,
        0.99876129627227783,
        0.99832117557525635
      ],
      "min": [
        -0.99999922513961792,
        -0.99272572994232178,
        -0.996756911277771
      ],
      "type": "VEC3"
    },
    {
      "bufferView": 0,
      "byteOffset": 890304,
      "componentType": 5125,
      "count": 9984,
      "max": [
        1705
      ],
      "min": [
        0
      ],
      "type": "SCALAR"
    },
    {
      "bufferView": 1,
      "byteOffset": 971544,
      "componentType": 5126,
      "count": 57,
      "max": [
        3.5836899280548096,
        1.5919100046157837,
        3.3381500244140625
      ],
      "min": [
        -3.6281599998474121,
        -0.42667001485824585,
        2.705009937286377
      ],
      "type": "VEC3"
    },
    {
      "bufferView": 1,
      "byteOffset": 972228,
      "componentType": 5126,
      "count": 57,
      "max": [
        0.25979948043823242,
        -0.08300984650850296,
        -0.96208816766738892
      ],
      "min": [
        -0.19933095574378967,
        -0.10753051191568375,
        -0.97401463985443115
      ],
      "type": "VEC3"
    },
    {
      "bufferView": 0,
      "byteOffset": 930240,
      "componentType": 5125,
      "count": 144,
      "max": [
        56
      ],
      "min": [
        0
      ],
      "type": "SCALAR"
    },
    {
      "bufferView": 1,
      "byteOffset": 972912,
      "componentType": 5126,
      "count": 44816,
      "max": [
        5.283480167388916,
        4.0300297737121582,
        3.5099000930786133
      ],
      "min": [
        -0.16168999671936035,
        0.48335999250411987,
        0.081780001521110535
      ],
      "type": "VEC3"
    },
    {
      "bufferView": 1,
      "byteOffset": 1510704,
      "componentType": 5126,
      "count": 44816,
      "max": [
        0.99999791383743286,
        0.9999968409538269,
        0.99987787008285522
      ],
      "min": [
        -0.99999696016311646,
        -0.99994522333145142,
        -0.99990302324295044
      ],
      "type": "VEC3"
    },
    {
      "bufferView": 0,
      "byteOffset": 930816,
      "componentType": 5125,
      "count": 268800,
      "max": [
        44815
      ],
      "min": [
        0
      ],
      "type": "SCALAR"
    }
  ],
  "asset": {
    "extras": {
      "author": "tailsluver29 (https://sketchfab.com/tailsluver28)",
      "license": "CC-BY-4.0 (http://creativecommons.org/licenses/by/4.0/)",
      "source": "https://sketchfab.com/3d-models/rotary-phone-f5461e046f6d42368ef22f36382195a3",
      "title": "rotary phone"
    },
    "generator": "Sketchfab-8.42.0",
    "version": "2.0"
  },
  "bufferViews": [
    {
      "buffer": 0,
      "byteLength": 2006016,
      "byteOffset": 0,
      "name": "floatBufferViews",
      "target": 34963
    },
    {
      "buffer": 0,
      "byteLength": 2048496,
      "byteOffset": 2006016,
      "byteStride": 12,
      "name": "floatBufferViews",
      "target": 34962
    }
  ],
  "buffers": [
    {
      "byteLength": 4054512,
      "uri": "scene.bin"
    }
  ],
  "materials": [
    {
      "doubleSided": true,
      "emissiveFactor": [
        0,
        0,
        0
      ],
      "name": "Material.002",
      "pbrMetallicRoughness": {
        "baseColorFactor": [
          0.0057969987392425476,
          0.70937168598174971,
          1,
          1
        ],
        "metallicFactor": 0.08075229982549903,
        "roughnessFactor": 0.31731055700466348
      }
    },
    {
      "doubleSided": true,
      "emissiveFactor": [
        0,
        0,
        0
      ],
      "name": "Material.004",
      "pbrMetallicRoughness": {
        "baseColorFactor": [
          0.70760125268926688,
          0.65917141306601734,
          0.65917141306601734,
          1
        ],
        "metallicFactor": 0.37868078482875195,
        "roughnessFactor": 0.66996060047790162
      }
    },
    {
      "doubleSided": true,
      "emissiveFactor": [
        0,
        0,
        0
      ],
      "name": "Material.006",
      "pbrMetallicRoughness": {
        "baseColorFactor": [
          0.80000001192092896,
          0.80000001192092896,
          0.80000001192092896,
          1
        ],
        "metallicFactor": 0,
        "roughnessFactor": 0.59999999999999998
      }
    },
    {
      "doubleSided": true,
      "emissiveFactor": [
        0,
        0,
        0
      ],
      "name": "Material.005",
      "pbrMetallicRoughness": {
        "baseColorFactor": [
          0.42920663952827454,
          0.42920663952827454,
          0.42920663952827454,
          1
        ],
        "metallicFactor": 0.2631574947254498,
        "roughnessFactor": 0.45107436659796074
      }
    },
    {
      "doubleSided": true,
      "emissiveFactor": [
        0,
        0,
        0
      ],
      "name": "Material",
      "pbrMetallicRoughness": {
        "baseColorFactor": [
          0,
          0,
          0,
          1
        ],
        "metallicFactor": 0,
        "roughnessFactor": 0.59999999999999998
      }
    },
    {
      "doubleSided": true,
      "emissiveFactor": [
        0,
        0,
        0
      ],
      "name": "Material.007",
      "pbrMetallicRoughness": {
        "baseColorFactor": [
          0.0057969987392425476,
          0.70937168598174971,
          1,
          1
        ],
        "metallicFactor": 0.36044026533875684,
        "roughnessFactor": 0.33003939952209838
      }
    }
  ],
  "meshes": [
    {
      "name": "fixed_rotar.001_0",
      "primitives": [
        {
          "attributes": {
            "NORMAL": 1,
            "POSITION": 0
          },
          "indices": 2,
          "material": 0,
          "mode": 4
        }
      ]
    },
    {
      "name": "fixed_rotar.001_1",
      "primitives": [
        {
          "attributes": {
            "NORMAL": 4,
            "POSITION": 3
          },
          "indices": 5,
          "material": 1,
          "mode": 4
        }
      ]
    },
    {
      "name": "fixed_rotar.001_2",
      "primitives": [
        {
          "attributes": {
            "NORMAL": 7,
            "POSITION": 6
          },
          "indices": 8,
          "material": 2,
          "mode": 4
        }
      ]
    },
    {
      "name": "fixed_rotar.001_3",
      "primitives": [
        {
          "attributes": {
            "NORMAL": 10,
            "POSITION": 9
          },
          "indices": 11,
          "material": 3,
          "mode": 4
        }
      ]
    },
    {
      "name": "fixed_rotar.001_4",
      "primitives": [
        {
          "attributes": {
            "NORMAL": 13,
            "POSITION": 12
          },
          "indices": 14,
          "material": 4,
          "mode": 4
        }
      ]
    },
    {
      "name": "fixed_rotar.001_5",
      "primitives": [
        {
          "attributes": {
            "NORMAL": 16,
            "POSITION": 15
          },
          "indices": 17,
          "material": 5,
          "mode": 4
        }
      ]
    }
  ],
  "nodes": [
    {
      "children": [
        1
      ],
      "name": "RootNode (gltf orientation matrix)",
      "rotation": [
        -0.70710678118654746,
        -0,
        -0,
        0.70710678118654757
      ]
    },
    {
      "children": [
        2
      ],
      "name": "RootNode (model correction matrix)"
    },
    {
      "children": [
        3
      ],
      "name": "Root"
    },
    {
      "children": [
        4,
        5,
        6,
        7,
        8,
        9
      ],
      "name": "fixed_rotar.001"
    },
    {
      "mesh": 0,
      "name": "fixed_rotar.001_0"
    },
    {
      "mesh": 1,
      "name": "fixed_rotar.001_1"
    },
    {
      "mesh": 2,
      "name": "fixed_rotar.001_2"
    },
    {
      "mesh": 3,
      "name": "fixed_rotar.001_3"
    },
    {
      "mesh": 4,
      "name": "fixed_rotar.001_4"
    },
    {
      "mesh": 5,
      "name": "fixed_rotar.001_5"
    }
  ],
  "scene": 0,
  "scenes": [
    {
      "name": "OSG_Scene",
      "nodes": [
        0
      ]
    }
  ]
}

