{
  "accessors": [
    {
      "bufferView": 2,
      "componentType": 5126,
      "count": 206,
      "max": [
        4.432136058807373,
        1.3100240230560303,
        0.296999990940094
      ],
      "min": [
        4.068792819976807,
        1.0057590007781982,
        0.0
      ],
      "type": "VEC3"
    },
    {
      "bufferView": 2,
      "byteOffset": 2472,
      "componentType": 5126,
      "count": 206,
      "max": [
        0.9929003715515137,
        0.9968157410621643,
        1.0
      ],
      "min": [
        -0.9852782487869263,
        -0.9960933327674866,
        -1.0
      ],
      "type": "VEC3"
    },
    {
      "bufferView": 1,
      "componentType": 5126,
      "count": 206,
      "max": [
        0.9980080127716064,
        0.9980080127716064
      ],
      "min": [
        0.001896000001579523,
        0.0018769999733194709
      ],
      "type": "VEC2"
    },
    {
      "bufferView": 0,
      "componentType": 5125,
      "count": 444,
      "type": "SCALAR"
    },
    {
      "bufferView": 2,
      "byteOffset": 4944,
      "componentType": 5126,
      "count": 3140,
      "max": [
        3.597019910812378,
        2.644102096557617,
        0.29249998927116394
      ],
      "min": [
        -2.6467580795288086,
        -2.0385499000549316,
        -0.0007210000185295939
      ],
      "type": "VEC3"
    },
    {
      "bufferView": 2,
      "byteOffset": 42624,
      "componentType": 5126,
      "count": 3140,
      "max": [
        0.9999987483024597,
        0.9999947547912598,
        1.0
      ],
      "min": [
        -0.9999973773956299,
        -0.9999998807907104,
        -1.0
      ],
      "type": "VEC3"
    },
    {
      "bufferView": 1,
      "byteOffset": 1648,
      "componentType": 5126,
      "count": 3140,
      "max": [
        0.9980080127716064,
        0.9980080127716064
      ],
      "min": [
        0.0008670000243000686,
        0.0018570000538602471
      ],
      "type": "VEC2"
    },
    {
      "bufferView": 0,
      "byteOffset": 1776,
      "componentType": 5125,
      "count": 6432,
      "type": "SCALAR"
    },
    {
      "bufferView": 2,
      "byteOffset": 80304,
      "componentType": 5126,
      "count": 2072,
      "max": [
        2.9520530700683594,
        2.6692559719085693,
        0.3190000057220459
      ],
      "min": [
        -2.903975009918213,
        -1.7395130395889282,
        -0.0008379999781027436
      ],
      "type": "VEC3"
    },
    {
      "bufferView": 2,
      "byteOffset": 105168,
      "componentType": 5126,
      "count": 2072,
      "max": [
        0.9999963641166687,
        0.999732255935669,
        1.0
      ],
      "min": [
        -0.9999855160713196,
        -0.999999463558197,
        -1.0
      ],
      "type": "VEC3"
    },
    {
      "bufferView": 1,
      "byteOffset": 26768,
      "componentType": 5126,
      "count": 2072,
      "max": [
        0.9980080127716064,
        0.9980080127716064
      ],
      "min": [
        0.0019150000298395753,
        0.0018319999799132347
      ],
      "type": "VEC2"
    },
    {
      "bufferView": 0,
      "byteOffset": 27504,
      "componentType": 5125,
      "count": 4296,
      "type": "SCALAR"
    },
    {
      "bufferView": 2,
      "byteOffset": 130032,
      "componentType": 5126,
      "count": 1044,
      "max": [
        3.5217719078063965,
        2.388247013092041,
        0.34950000047683716
      ],
      "min": [
        -1.9874249696731567,
        -1.0420819520950317,
        -0.0001539999939268455
      ],
      "type": "VEC3"
    },
    {
      "bufferView": 2,
      "byteOffset": 142560,
      "componentType": 5126,
      "count": 1044,
      "max": [
        0.9999763369560242,
        0.9999816417694092,
        1.0
      ],
      "min": [
        -0.9999862313270569,
        -0.9999191164970398,
        -1.0
      ],
      "type": "VEC3"
    },
    {
      "bufferView": 1,
      "byteOffset": 43344,
      "componentType": 5126,
      "count": 1044,
      "max": [
        0.9980080127716064,
        0.9980080127716064
      ],
      "min": [
        0.0018789999885484576,
        0.0018500000005587935
      ],
      "type": "VEC2"
    },
    {
      "bufferView": 0,
      "byteOffset": 44688,
      "componentType": 5125,
      "count": 2196,
      "type": "SCALAR"
    },
    {
      "bufferView": 2,
      "byteOffset": 155088,
      "componentType": 5126,
      "count": 852,
      "max": [
        4.081724166870117,
        0.046181000769138336,
        0.24998299777507782
      ],
      "min": [
        2.5377590656280518,
        -0.7064399719238281,
        -0.0003319999959785491
      ],
      "type": "VEC3"
    },
    {
      "bufferView": 2,
      "byteOffset": 165312,
      "componentType": 5126,
      "count": 852,
      "max": [
        0.9999107718467712,
        0.999934732913971,
        1.0
      ],
      "min": [
        -0.9999632239341736,
        -0.9998471140861511,
        -1.0
      ],
      "type": "VEC3"
    },
    {
      "bufferView": 1,
      "byteOffset": 51696,
      "componentType": 5126,
      "count": 852,
      "max": [
        0.9980080127716064,
        0.9980080127716064
      ],
      "min": [
        0.0016220000106841326,
        0.0019280000124126673
      ],
      "type": "VEC2"
    },
    {
      "bufferView": 0,
      "byteOffset": 53472,
      "componentType": 5125,
      "count": 1728,
      "type": "SCALAR"
    },
    {
      "bufferView": 2,
      "byteOffset": 175536,
      "componentType": 5126,
      "count": 90,
      "max": [
        -4.352785110473633,
        -2.7087700366973877,
        0.0
      ],
      "min": [
        -4.643272876739502,
        -2.803173065185547,
        0.0
      ],
      "type": "VEC3"
    },
    {
      "bufferView": 2,
      "byteOffset": 176616,
      "componentType": 5126,
      "count": 90,
      "max": [
        0.0,
        0.0,
        1.0
      ],
      "min": [
        0.0,
        0.0,
        -1.0
      ],
      "type": "VEC3"
    },
    {
      "bufferView": 1,
      "byteOffset": 58512,
      "componentType": 5126,
      "count": 90,
      "max": [
        0.9277989864349365,
        0.9911749958992004
      ],
      "min": [
        0.08385500311851501,
        0.0019920000340789557
      ],
      "type": "VEC2"
    },
    {
      "bufferView": 0,
      "byteOffset": 60384,
      "componentType": 5125,
      "count": 102,
      "type": "SCALAR"
    },
    {
      "bufferView": 2,
      "byteOffset": 177696,
      "componentType": 5126,
      "count": 8687,
      "max": [
        3.6104769706726074,
        1.1501929759979248,
        0.26649999618530273
      ],
      "min": [
        -4.9169511795043945,
        -2.8241360187530518,
        -8.499999967170879e-05
      ],
      "type": "VEC3"
    },
    {
      "bufferView": 2,
      "byteOffset": 281940,
      "componentType": 5126,
      "count": 8687,
      "max": [
        0.9999948740005493,
        0.9999974966049194,
        1.0
      ],
      "min": [
        -0.9999958872795105,
        -0.9999987483024597,
        -1.0
      ],
      "type": "VEC3"
    },
    {
      "bufferView": 1,
      "byteOffset": 59232,
      "componentType": 5126,
      "count": 8687,
      "max": [
        2.128401041030884,
        2.1798369884490967
      ],
      "min": [
        -1.1519969701766968,
        -1.1798369884490967
      ],
      "type": "VEC2"
    },
    {
      "bufferView": 0,
      "byteOffset": 60792,
      "componentType": 5125,
      "count": 18210,
      "type": "SCALAR"
    },
    {
      "bufferView": 2,
      "byteOffset": 386184,
      "componentType": 5126,
      "count": 3328,
      "max": [
        4.895683765411377,
        2.581697940826416,
        0.2733980119228363
      ],
      "min": [
        -3.540648937225342,
        -1.4136110544204712,
        -0.002004999900236726
      ],
      "type": "VEC3"
    },
    {
      "bufferView": 2,
      "byteOffset": 426120,
      "componentType": 5126,
      "count": 3328,
      "max": [
        1.0,
        0.9999992251396179,
        1.0
      ],
      "min": [
        -0.9999956488609314,
        -0.9999828934669495,
        -1.0
      ],
      "type": "VEC3"
    },
    {
      "bufferView": 1,
      "byteOffset": 128728,
      "componentType": 5126,
      "count": 3328,
      "max": [
        1.0,
        0.9980080127716064
      ],
      "min": [
        -0.21583199501037598,
        0.0
      ],
      "type": "VEC2"
    },
    {
      "bufferView": 0,
      "byteOffset": 133632,
      "componentType": 5125,
      "count": 6936,
      "type": "SCALAR"
    },
    {
      "bufferView": 2,
      "byteOffset": 466056,
      "componentType": 5126,
      "count": 1770,
      "max": [
        4.090432167053223,
        2.8860280513763428,
        0.2939999997615814
      ],
      "min": [
        -4.042418003082275,
        -0.2697660028934479,
        -0.007067000027745962
      ],
      "type": "VEC3"
    },
    {
      "bufferView": 2,
      "byteOffset": 487296,
      "componentType": 5126,
      "count": 1770,
      "max": [
        1.0,
        0.999937117099762,
        1.0
      ],
      "min": [
        -0.9999764561653137,
        -0.9999817609786987,
        -1.0
      ],
      "type": "VEC3"
    },
    {
      "bufferView": 1,
      "byteOffset": 155352,
      "componentType": 5126,
      "count": 1770,
      "max": [
        0.9980080127716064,
        0.9980080127716064
      ],
      "min": [
        0.0018489999929443002,
        0.0018319999799132347
      ],
      "type": "VEC2"
    },
    {
      "bufferView": 0,
      "byteOffset": 161376,
      "componentType": 5125,
      "count": 3672,
      "type": "SCALAR"
    },
    {
      "bufferView": 2,
      "byteOffset": 508536,
      "componentType": 5126,
      "count": 1952,
      "max": [
        4.3904571533203125,
        1.879554033279419,
        0.31850001215934753
      ],
      "min": [
        -4.162085056304932,
        -2.80647611618042,
        0.0
      ],
      "type": "VEC3"
    },
    {
      "bufferView": 2,
      "byteOffset": 531960,
      "componentType": 5126,
      "count": 1952,
      "max": [
        0.9999951124191284,
        0.999995768070221,
        1.0
      ],
      "min": [
        -0.9999803304672241,
        -1.0,
        -1.0
      ],
      "type": "VEC3"
    },
    {
      "bufferView": 1,
      "byteOffset": 169512,
      "componentType": 5126,
      "count": 1952,
      "max": [
        0.9980080127716064,
        0.9980080127716064
      ],
      "min": [
        0.0006810000049881637,
        0.0018279999494552612
      ],
      "type": "VEC2"
    },
    {
      "bufferView": 0,
      "byteOffset": 176064,
      "componentType": 5125,
      "count": 4020,
      "type": "SCALAR"
    },
    {
      "bufferView": 2,
      "byteOffset": 555384,
      "componentType": 5126,
      "count": 1304,
      "max": [
        4.6765007972717285,
        1.943632960319519,
        0.3305000066757202
      ],
      "min": [
        3.2131431102752686,
        0.2620980143547058,
        0.0
      ],
      "type": "VEC3"
    },
    {
      "bufferView": 2,
      "byteOffset": 571032,
      "componentType": 5126,
      "count": 1304,
      "max": [
        0.9999971389770508,
        0.9999978542327881,
        1.0
      ],
      "min": [
        -0.9999982118606567,
        -0.9999204874038696,
        -1.0
      ],
      "type": "VEC3"
    },
    {
      "bufferView": 1,
      "byteOffset": 185128,
      "componentType": 5126,
      "count": 1304,
      "max": [
        0.9980080127716064,
        0.9980080127716064
      ],
      "min": [
        0.00076299998909235,
        0.0018149999668821692
      ],
      "type": "VEC2"
    },
    {
      "bufferView": 0,
      "byteOffset": 192144,
      "componentType": 5125,
      "count": 2700,
      "type": "SCALAR"
    },
    {
      "bufferView": 2,
      "byteOffset": 586680,
      "componentType": 5126,
      "count": 1086,
      "max": [
        3.253561019897461,
        1.9131619930267334,
        0.24818499386310577
      ],
      "min": [
        -2.9721450805664063,
        -1.5803780555725098,
        -0.004120999947190285
      ],
      "type": "VEC3"
    },
    {
      "bufferView": 2,
      "byteOffset": 599712,
      "componentType": 5126,
      "count": 1086,
      "max": [
        0.9999944567680359,
        0.9999018907546997,
        1.0
      ],
      "min": [
        -0.9999997615814209,
        -0.9992057681083679,
        -1.0
      ],
      "type": "VEC3"
    },
    {
      "bufferView": 1,
      "byteOffset": 195560,
      "componentType": 5126,
      "count": 1086,
      "max": [
        0.9980080127716064,
        0.9980080127716064
      ],
      "min": [
        0.0018769999733194709,
        0.0018350000027567148
      ],
      "type": "VEC2"
    },
    {
      "bufferView": 0,
      "byteOffset": 202944,
      "componentType": 5125,
      "count": 2316,
      "type": "SCALAR"
    }
  ],
  "asset": {
    "extras": {
      "author": "raeofsunlight (https://sketchfab.com/raeofsunlight)",
      "license": "CC-BY-4.0 (http://creativecommons.org/licenses/by/4.0/)",
      "source": "https://sketchfab.com/3d-models/the-2020-presidential-election-results-316251da97a2455e88afbbbceae75172",
      "title": "The 2020 Presidential Election Results"
    },
    "generator": "Sketchfab-12.65.0",
    "version": "2.0"
  },
  "bufferViews": [
    {
      "buffer": 0,
      "byteLength": 212208,
      "name": "floatBufferViews",
      "target": 34963
    },
    {
      "buffer": 0,
      "byteLength": 204248,
      "byteOffset": 212208,
      "byteStride": 8,
      "name": "floatBufferViews",
      "target": 34962
    },
    {
      "buffer": 0,
      "byteLength": 612744,
      "byteOffset": 416456,
      "byteStride": 12,
      "name": "floatBufferViews",
      "target": 34962
    }
  ],
  "buffers": [
    {
      "byteLength": 1029200,
      "uri": "scene.bin"
    }
  ],
  "materials": [
    {
      "doubleSided": true,
      "name": "initialShadingGroup",
      "pbrMetallicRoughness": {
        "baseColorFactor": [
          0.0051815167023383886,
          0.0953074666309647,
          0.24620132670783548,
          1.0
        ],
        "metallicFactor": 0.0,
        "roughnessFactor": 0.6
      }
    },
    {
      "doubleSided": true,
      "name": "lambert12SG",
      "pbrMetallicRoughness": {
        "baseColorFactor": [
          0.4072402119017367,
          0.02415763244850473,
          0.03688945040110002,
          1.0
        ],
        "metallicFactor": 0.0,
        "roughnessFactor": 0.6
      }
    },
    {
      "doubleSided": true,
      "name": "lambert13SG",
      "pbrMetallicRoughness": {
        "baseColorFactor": [
          0.3049873140698861,
          0.019382360956935737,
          0.028426039504420852,
          1.0
        ],
        "metallicFactor": 0.0,
        "roughnessFactor": 0.6
      }
    },
    {
      "doubleSided": true,
      "name": "lambert14SG",
      "pbrMetallicRoughness": {
        "baseColorFactor": [
          0.2232279573168085,
          0.015208514422912702,
          0.022173884793387347,
          1.0
        ],
        "metallicFactor": 0.0,
        "roughnessFactor": 0.6
      }
    },
    {
      "doubleSided": true,
      "name": "lambert15SG",
      "pbrMetallicRoughness": {
        "baseColorFactor": [
          0.6514056374198239,
          0.07818742180518637,
          0.10224173308810121,
          1.0
        ],
        "metallicFactor": 0.0,
        "roughnessFactor": 0.6
      }
    },
    {
      "doubleSided": true,
      "name": "lambert2SG",
      "pbrMetallicRoughness": {
        "baseColorFactor": [
          0.5209955732043541,
          0.0295568344378088,
          0.04518620438567561,
          1.0
        ],
        "metallicFactor": 0.0,
        "roughnessFactor": 0.6
      }
    },
    {
      "doubleSided": true,
      "name": "lambert3SG",
      "pbrMetallicRoughness": {
        "baseColorFactor": [
          0.007499032043226175,
          0.17464740365558498,
          0.467783796112159,
          1.0
        ],
        "metallicFactor": 0.0,
        "roughnessFactor": 0.6
      }
    },
    {
      "doubleSided": true,
      "name": "lambert4SG",
      "pbrMetallicRoughness": {
        "baseColorFactor": [
          0.006048833022857053,
          0.13013647669036413,
          0.3467040563550296,
          1.0
        ],
        "metallicFactor": 0.0,
        "roughnessFactor": 0.6
      }
    },
    {
      "doubleSided": true,
      "name": "lambert5SG",
      "pbrMetallicRoughness": {
        "baseColorFactor": [
          0.0051815167023383886,
          0.0953074666309647,
          0.24620132670783548,
          1.0
        ],
        "metallicFactor": 0.0,
        "roughnessFactor": 0.6
      }
    },
    {
      "doubleSided": true,
      "name": "lambert6SG",
      "pbrMetallicRoughness": {
        "baseColorFactor": [
          0.004024717018496304,
          0.06480326669290574,
          0.1651321945016676,
          1.0
        ],
        "metallicFactor": 0.0,
        "roughnessFactor": 0.6
      }
    },
    {
      "doubleSided": true,
      "name": "lambert7SG",
      "pbrMetallicRoughness": {
        "baseColorFactor": [
          0.010329823029626928,
          0.2831487404299921,
          0.7758222183174236,
          1.0
        ],
        "metallicFactor": 0.0,
        "roughnessFactor": 0.6
      }
    }
  ],
  "meshes": [
    {
      "name": "Object_0",
      "primitives": [
        {
          "attributes": {
            "NORMAL": 1,
            "POSITION": 0,
            "TEXCOORD_0": 2
          },
          "indices": 3,
          "material": 0,
          "mode": 4
        }
      ]
    },
    {
      "name": "Object_1",
      "primitives": [
        {
          "attributes": {
            "NORMAL": 5,
            "POSITION": 4,
            "TEXCOORD_0": 6
          },
          "indices": 7,
          "material": 1,
          "mode": 4
        }
      ]
    },
    {
      "name": "Object_2",
      "primitives": [
        {
          "attributes": {
            "NORMAL": 9,
            "POSITION": 8,
            "TEXCOORD_0": 10
          },
          "indices": 11,
          "material": 2,
          "mode": 4
        }
      ]
    },
    {
      "name": "Object_3",
      "primitives": [
        {
          "attributes": {
            "NORMAL": 13,
            "POSITION": 12,
            "TEXCOORD_0": 14
          },
          "indices": 15,
          "material": 3,
          "mode": 4
        }
      ]
    },
    {
      "name": "Object_4",
      "primitives": [
        {
          "attributes": {
            "NORMAL": 17,
            "POSITION": 16,
            "TEXCOORD_0": 18
          },
          "indices": 19,
          "material": 4,
          "mode": 4
        }
      ]
    },
    {
      "name": "Object_5",
      "primitives": [
        {
          "attributes": {
            "NORMAL": 21,
            "POSITION": 20,
            "TEXCOORD_0": 22
          },
          "indices": 23,
          "material": 5,
          "mode": 4
        }
      ]
    },
    {
      "name": "Object_6",
      "primitives": [
        {
          "attributes": {
            "NORMAL": 25,
            "POSITION": 24,
            "TEXCOORD_0": 26
          },
          "indices": 27,
          "material": 5,
          "mode": 4
        }
      ]
    },
    {
      "name": "Object_7",
      "primitives": [
        {
          "attributes": {
            "NORMAL": 29,
            "POSITION": 28,
            "TEXCOORD_0": 30
          },
          "indices": 31,
          "material": 6,
          "mode": 4
        }
      ]
    },
    {
      "name": "Object_8",
      "primitives": [
        {
          "attributes": {
            "NORMAL": 33,
            "POSITION": 32,
            "TEXCOORD_0": 34
          },
          "indices": 35,
          "material": 7,
          "mode": 4
        }
      ]
    },
    {
      "name": "Object_9",
      "primitives": [
        {
          "attributes": {
            "NORMAL": 37,
            "POSITION": 36,
            "TEXCOORD_0": 38
          },
          "indices": 39,
          "material": 8,
          "mode": 4
        }
      ]
    },
    {
      "name": "Object_10",
      "primitives": [
        {
          "attributes": {
            "NORMAL": 41,
            "POSITION": 40,
            "TEXCOORD_0": 42
          },
          "indices": 43,
          "material": 9,
          "mode": 4
        }
      ]
    },
    {
      "name": "Object_11",
      "primitives": [
        {
          "attributes": {
            "NORMAL": 45,
            "POSITION": 44,
            "TEXCOORD_0": 46
          },
          "indices": 47,
          "material": 10,
          "mode": 4
        }
      ]
    }
  ],
  "nodes": [
    {
      "children": [
        1
      ],
      "matrix": [
        1.0,
        0.0,
        0.0,
        0.0,
        0.0,
        2.220446049250313e-16,
        -1.0,
        0.0,
        0.0,
        1.0,
        2.220446049250313e-16,
        0.0,
        0.0,
        0.0,
        0.0,
        1.0
      ],
      "name": "Sketchfab_model"
    },
    {
      "children": [
        2,
        3,
        4,
        5,
        6,
        7,
        8,
        9,
        10,
        11,
        12,
        13
      ],
      "name": "Test export 1.obj.cleaner.materialmerger.gles"
    },
    {
      "mesh": 0,
      "name": "Object_2"
    },
    {
      "mesh": 1,
      "name": "Object_3"
    },
    {
      "mesh": 2,
      "name": "Object_4"
    },
    {
      "mesh": 3,
      "name": "Object_5"
    },
    {
      "mesh": 4,
      "name": "Object_6"
    },
    {
      "mesh": 5,
      "name": "Object_7"
    },
    {
      "mesh": 6,
      "name": "Object_8"
    },
    {
      "mesh": 7,
      "name": "Object_9"
    },
    {
      "mesh": 8,
      "name": "Object_10"
    },
    {
      "mesh": 9,
      "name": "Object_11"
    },
    {
      "mesh": 10,
      "name": "Object_12"
    },
    {
      "mesh": 11,
      "name": "Object_13"
    }
  ],
  "scene": 0,
  "scenes": [
    {
      "name": "Sketchfab_Scene",
      "nodes": [
        0
      ]
    }
  ]
}
